<?xml version="1.0" encoding="utf-8"?>
<!-- Generator: Adobe Illustrator 24.0.0, SVG Export Plug-In . SVG Version: 6.00 Build 0)  -->
<svg version="1.1" id="Layer_1" xmlns="http://www.w3.org/2000/svg" xmlns:xlink="http://www.w3.org/1999/xlink" x="0px" y="0px"
	 viewBox="0 0 54.2 54.2" style="enable-background:new 0 0 54.2 54.2;" xml:space="preserve">
<style type="text/css">
	.st0{fill:#28A4C3;stroke:#28A4C3;stroke-miterlimit:10;}
</style>
<title>blink</title>
<path class="st0" d="M48.4,26.4c-11.3,0-20.5-9.2-20.5-20.5c0-0.4-0.3-0.7-0.7-0.7c-0.4,0-0.7,0.3-0.7,0.7
	c0,11.3-9.2,20.5-20.5,20.5c-0.4,0-0.7,0.3-0.7,0.7c0,0.4,0.3,0.7,0.7,0.7c11.3,0,20.5,9.2,20.5,20.5c0,0.4,0.3,0.7,0.7,0.7
	c0.4,0,0.7-0.3,0.7-0.7c0-11.3,9.2-20.5,20.5-20.5c0.4,0,0.7-0.3,0.7-0.7C49.1,26.7,48.8,26.4,48.4,26.4z M27.1,42.7
	c-2-7.6-8-13.6-15.6-15.6c7.6-2,13.6-8,15.6-15.6c2,7.6,8,13.6,15.6,15.6C35.1,29.2,29.2,35.1,27.1,42.7z"/>
</svg>
