<svg id="Layer_1" data-name="Layer 1" xmlns="http://www.w3.org/2000/svg" viewBox="0 0 15 15"><defs><style>.cls-1,.cls-2{fill:#28a4c3;}.cls-2{fill-rule:evenodd;}</style></defs><title>instagram</title><path class="cls-1" d="M12.75,3.38a1.13,1.13,0,1,1-1.12-1.13A1.12,1.12,0,0,1,12.75,3.38Z"/><path class="cls-2" d="M7.5,11.25A3.75,3.75,0,1,0,3.75,7.5,3.75,3.75,0,0,0,7.5,11.25Zm0-1.5A2.25,2.25,0,1,0,5.25,7.5,2.25,2.25,0,0,0,7.5,9.75Z"/><path class="cls-2" d="M0,7.2C0,4.68,0,3.42.49,2.46a4.47,4.47,0,0,1,2-2C3.42,0,4.68,0,7.2,0h.6c2.52,0,3.78,0,4.74.49a4.47,4.47,0,0,1,2,2C15,3.42,15,4.68,15,7.2v.6c0,2.52,0,3.78-.49,4.74a4.47,4.47,0,0,1-2,2c-1,.49-2.22.49-4.74.49H7.2c-2.52,0-3.78,0-4.74-.49a4.47,4.47,0,0,1-2-2C0,11.58,0,10.32,0,7.8ZM7.2,1.5h.6c1.28,0,2.16,0,2.83.06a3.13,3.13,0,0,1,1.23.27,2.87,2.87,0,0,1,1.31,1.31,3.13,3.13,0,0,1,.27,1.23c.06.67.06,1.55.06,2.83v.6c0,1.28,0,2.16-.06,2.83a3.13,3.13,0,0,1-.27,1.23,2.87,2.87,0,0,1-1.31,1.31,3.13,3.13,0,0,1-1.23.27c-.67.06-1.55.06-2.83.06H7.2c-1.28,0-2.16,0-2.83-.06a3.13,3.13,0,0,1-1.23-.27,2.87,2.87,0,0,1-1.31-1.31,3.13,3.13,0,0,1-.27-1.23C1.5,10,1.5,9.08,1.5,7.8V7.2c0-1.28,0-2.16.06-2.83a3.13,3.13,0,0,1,.27-1.23A2.87,2.87,0,0,1,3.14,1.83a3.13,3.13,0,0,1,1.23-.27C5,1.5,5.92,1.5,7.2,1.5Z"/></svg>