<svg id="Layer_1" data-name="Layer 1" xmlns="http://www.w3.org/2000/svg" viewBox="0 0 1378.83 367.88"><defs><style>.cls-1{isolation:isolate;}.cls-2{fill:#000154;}</style></defs><title>Logo</title><g class="cls-1"><path class="cls-2" d="M398.68,377.12h27v9.16h-8.9V426h-9.43V386.28h-8.67Z" transform="translate(-24.25 -59.31)"/><path class="cls-2" d="M437.46,377.12h9.43v18.43h16.3V377.12h9.4V426h-9.4V404.54h-16.3V426h-9.43Z" transform="translate(-24.25 -59.31)"/><path class="cls-2" d="M489.22,377.12h26.66v9.1H498.45v8.83h17.43V404H498.45v12.85h17.43V426H489.22Z" transform="translate(-24.25 -59.31)"/><path class="cls-2" d="M554.58,377.12h24.24v9.06h-15v8.87h15V404h-15v22h-9.23Z" transform="translate(-24.25 -59.31)"/><path class="cls-2" d="M592.2,377.12h9.33V408.7a16.49,16.49,0,0,0,.71,5.77,5.78,5.78,0,0,0,2.36,2.71,7.48,7.48,0,0,0,4,1,7.72,7.72,0,0,0,4.23-1.13,6,6,0,0,0,2.46-2.87,21.43,21.43,0,0,0,.68-6.65V377.12h9.33v29.12q0,7.36-.83,10.22a15.63,15.63,0,0,1-8.57,9.45,18.29,18.29,0,0,1-7.1,1.28,17.14,17.14,0,0,1-9.25-2.44,14.28,14.28,0,0,1-5.63-6.11q-1.7-3.67-1.69-12.4Z" transform="translate(-24.25 -59.31)"/><path class="cls-2" d="M636.69,377.12h27v9.16h-8.9V426h-9.43V386.28h-8.66Z" transform="translate(-24.25 -59.31)"/><path class="cls-2" d="M675.16,377.12h9.33V408.7a16.2,16.2,0,0,0,.72,5.77,5.76,5.76,0,0,0,2.35,2.71,7.48,7.48,0,0,0,4,1,7.72,7.72,0,0,0,4.23-1.13,5.9,5.9,0,0,0,2.46-2.87,21.43,21.43,0,0,0,.68-6.65V377.12h9.33v29.12c0,4.91-.27,8.32-.83,10.22a14.43,14.43,0,0,1-3.17,5.52,14.72,14.72,0,0,1-5.39,3.93,18.38,18.38,0,0,1-7.11,1.28,17.19,17.19,0,0,1-9.25-2.44,14.19,14.19,0,0,1-5.62-6.11q-1.7-3.67-1.7-12.4Z" transform="translate(-24.25 -59.31)"/><path class="cls-2" d="M725.09,377.12h9.85q8.1,0,11.53,1.44a11.86,11.86,0,0,1,5.52,4.8,14.74,14.74,0,0,1,2.09,7.94,13.51,13.51,0,0,1-2.31,8.05,14,14,0,0,1-6.95,4.9L756.39,426H746.22l-11-20.69h-.85V426h-9.3Zm9.3,19.09h2.91q4.44,0,6.11-1.17a4.37,4.37,0,0,0,1.67-3.86,4.66,4.66,0,0,0-.83-2.78,4.56,4.56,0,0,0-2.21-1.7,16.64,16.64,0,0,0-5.1-.52h-2.55Z" transform="translate(-24.25 -59.31)"/><path class="cls-2" d="M769.38,377.12H796v9.1H778.61v8.83H796V404H778.61v12.85H796V426H769.38Z" transform="translate(-24.25 -59.31)"/><path class="cls-2" d="M809.72,375.89h8.37v4.57a20.52,20.52,0,0,1-4.72,14l-3.25-2.54a20.28,20.28,0,0,0,1.81-3.1,23.52,23.52,0,0,0,1.14-3.45h-3.35Z" transform="translate(-24.25 -59.31)"/><path class="cls-2" d="M860.25,383.76l-6.89,6.07c-2.41-3.36-4.88-5-7.38-5a4.53,4.53,0,0,0-3,1,2.86,2.86,0,0,0-1.16,2.21,3.81,3.81,0,0,0,.83,2.32,64.39,64.39,0,0,0,6.82,6.28q5.32,4.44,6.45,5.61a19.32,19.32,0,0,1,4,5.46,13.58,13.58,0,0,1,1.18,5.69,13,13,0,0,1-4.15,9.93,15.18,15.18,0,0,1-10.84,3.92,16.07,16.07,0,0,1-9.09-2.56,20.18,20.18,0,0,1-6.63-8l7.81-4.72q3.52,6.48,8.12,6.48a6,6,0,0,0,4-1.4,4.13,4.13,0,0,0,1.63-3.22,5.56,5.56,0,0,0-1.23-3.32,35.47,35.47,0,0,0-5.42-5.08q-8-6.51-10.31-10a12.71,12.71,0,0,1-2.33-7.06,11.52,11.52,0,0,1,3.87-8.71,13.41,13.41,0,0,1,9.56-3.64,15,15,0,0,1,7,1.69A25.32,25.32,0,0,1,860.25,383.76Z" transform="translate(-24.25 -59.31)"/><path class="cls-2" d="M895.07,377.12h27v9.16h-8.9V426h-9.43V386.28h-8.66Z" transform="translate(-24.25 -59.31)"/><path class="cls-2" d="M933.91,377.12h26.66v9.1H943.14v8.83h17.43V404H943.14v12.85h17.43V426H933.91Z" transform="translate(-24.25 -59.31)"/><path class="cls-2" d="M1019.57,385.7l-6.5,6.2q-6.65-7-14.93-7a16.34,16.34,0,0,0-16.59,16.58,17.52,17.52,0,0,0,2.12,8.68,15.29,15.29,0,0,0,6,6,17.43,17.43,0,0,0,8.62,2.16,17.74,17.74,0,0,0,7.4-1.52,26.44,26.44,0,0,0,7.37-5.5l6.3,6.58a34.84,34.84,0,0,1-10.23,7.33,27.94,27.94,0,0,1-11,2q-11.39,0-18.64-7.22t-7.26-18.51a25.31,25.31,0,0,1,3.31-13,24.6,24.6,0,0,1,9.46-9.13,26.73,26.73,0,0,1,13.27-3.45,28.16,28.16,0,0,1,21.28,9.81Z" transform="translate(-24.25 -59.31)"/><path class="cls-2" d="M1033.11,377.12h9.43v18.43h16.3V377.12h9.4V426h-9.4V404.54h-16.3V426h-9.43Z" transform="translate(-24.25 -59.31)"/><path class="cls-2" d="M1084.87,377.12h8.92l20.9,32.14V377.12H1124V426H1115l-20.87-32v32h-9.3Z" transform="translate(-24.25 -59.31)"/><path class="cls-2" d="M1163.64,375.89a24.25,24.25,0,0,1,17.82,7.5,25,25,0,0,1,7.46,18.3,24.65,24.65,0,0,1-7.36,18.09,25.48,25.48,0,0,1-36.13-.2,25.66,25.66,0,0,1,18.21-43.69Zm-.1,9.1a15.34,15.34,0,0,0-11.4,4.71,16.43,16.43,0,0,0-4.62,12q0,8.1,5.81,12.81a16,16,0,0,0,10.37,3.69,15.13,15.13,0,0,0,11.27-4.78,17.22,17.22,0,0,0,0-23.59A15.3,15.3,0,0,0,1163.54,385Z" transform="translate(-24.25 -59.31)"/><path class="cls-2" d="M1203.13,377.12h9.29v40H1226V426h-22.84Z" transform="translate(-24.25 -59.31)"/><path class="cls-2" d="M1261.54,375.89a24.27,24.27,0,0,1,17.83,7.5,25,25,0,0,1,7.46,18.3,24.69,24.69,0,0,1-7.36,18.09,25.48,25.48,0,0,1-36.13-.2,25.66,25.66,0,0,1,18.2-43.69Zm-.1,9.1a15.34,15.34,0,0,0-11.4,4.71,16.43,16.43,0,0,0-4.62,12q0,8.1,5.82,12.81a15.93,15.93,0,0,0,10.37,3.69,15.15,15.15,0,0,0,11.27-4.78,17.23,17.23,0,0,0,0-23.59A15.27,15.27,0,0,0,1261.44,385Z" transform="translate(-24.25 -59.31)"/><path class="cls-2" d="M1346.12,385.09l-6.54,6.47q-6.22-6.57-14.49-6.57a16.54,16.54,0,0,0-12.08,4.78,15.66,15.66,0,0,0-4.87,11.62,16.1,16.1,0,0,0,5,12,17.21,17.21,0,0,0,12.47,4.91,15.17,15.17,0,0,0,8.12-2,14.15,14.15,0,0,0,5.34-6.34H1325v-8.73h24.57l.07,2.06a24,24,0,0,1-3.32,12.15,23.23,23.23,0,0,1-8.6,8.77,24.56,24.56,0,0,1-12.39,3,27.43,27.43,0,0,1-13.56-3.31,24.17,24.17,0,0,1-9.43-9.41,26.28,26.28,0,0,1-3.47-13.18,24.52,24.52,0,0,1,6.41-16.87q7.61-8.54,19.79-8.53a30.19,30.19,0,0,1,11.92,2.36A27.4,27.4,0,0,1,1346.12,385.09Z" transform="translate(-24.25 -59.31)"/><path class="cls-2" d="M1360.11,377.12h10l9.12,17.57,9.06-17.57h9.86l-14.29,27.69V426h-9.37V404.81Z" transform="translate(-24.25 -59.31)"/></g><g class="cls-1"><g class="cls-1"><path class="cls-2" d="M141,346.42c-90.24,0-116.73-25.54-116.73-96.39V161.88C24.25,91,50.74,65.49,141,65.49H353.36v54H144.13c-41.76,0-52.09,11.12-52.09,45.72v82.39c0,35,10.33,45.31,52.53,45.31H353.36v53.55Z" transform="translate(-24.25 -59.31)"/><path class="cls-2" d="M397.8,346.42V65.49h68.25V346.42Z" transform="translate(-24.25 -59.31)"/></g><g class="cls-1"><path class="cls-2" d="M510.94,346.42V293.28H743.52c24.24,0,34.57-4.94,34.57-23.89V254.15c0-17.71-10.33-24.31-34.12-24.31H598.05c-68.7,0-86.66-23.06-86.66-71.26v-14c0-57.67,25.15-79.09,86.66-79.09h95.18v53.13h-88.9c-20.65,0-30.53,5.77-30.53,28v9.06c0,17.71,8.08,24.3,30.08,24.3H747.11c68.25,0,93.39,20.6,93.39,71.26v22.25c0,52.31-25.14,72.91-93.39,72.91Z" transform="translate(-24.25 -59.31)"/></g><g class="cls-1"><path class="cls-2" d="M1180.83,281.75H968.91l-43.55,64.67H846.78l177.8-259.51c10.78-16.07,23.8-27.6,51.64-27.6,27.39,0,40.41,11.53,51.18,27.6l176.9,259.51h-79Zm-180-48.2H1149l-74.08-110.81Z" transform="translate(-24.25 -59.31)"/><path class="cls-2" d="M1334.83,346.42V65.49h68.25V346.42Z" transform="translate(-24.25 -59.31)"/></g></g></svg>