<?xml version="1.0" encoding="utf-8"?>
<!-- Generator: Adobe Illustrator 24.0.0, SVG Export Plug-In . SVG Version: 6.00 Build 0)  -->
<svg version="1.1" id="Layer_1" xmlns="http://www.w3.org/2000/svg" xmlns:xlink="http://www.w3.org/1999/xlink" x="0px" y="0px"
	 viewBox="0 0 1378.8 367.9" style="enable-background:new 0 0 1378.8 367.9;" xml:space="preserve">
<style type="text/css">
	.st0{fill:#000154;}
</style>
<title>Logo</title>
<g>
	<path class="st0" d="M374.4,317.8h27v9.2h-8.9v39.7h-9.4V327h-8.7V317.8z"/>
	<path class="st0" d="M413.2,317.8h9.4v18.4h16.3v-18.4h9.4v48.9h-9.4v-21.5h-16.3v21.5h-9.4V317.8z"/>
	<path class="st0" d="M465,317.8h26.7v9.1h-17.4v8.8h17.4v9h-17.4v12.9h17.4v9.1H465V317.8z"/>
	<path class="st0" d="M530.3,317.8h24.2v9.1h-15v8.9h15v9h-15v22h-9.2L530.3,317.8z"/>
	<path class="st0" d="M568,317.8h9.3v31.6c-0.1,2,0.1,3.9,0.7,5.8c0.5,1.1,1.3,2.1,2.4,2.7c1.2,0.7,2.6,1,4,1c1.5,0,3-0.4,4.2-1.1
		c1.1-0.7,2-1.7,2.5-2.9c0.6-2.2,0.8-4.4,0.7-6.6v-30.4h9.3v29.1c0,4.9-0.3,8.3-0.8,10.2c-1.4,4.2-4.5,7.7-8.6,9.5
		c-2.3,0.9-4.7,1.3-7.1,1.3c-3.3,0.1-6.5-0.8-9.3-2.4c-2.4-1.4-4.4-3.6-5.6-6.1c-1.1-2.4-1.7-6.6-1.7-12.4L568,317.8z"/>
	<path class="st0" d="M612.4,317.8h27v9.2h-8.9v39.7h-9.4V327h-8.7L612.4,317.8z"/>
	<path class="st0" d="M650.9,317.8h9.3v31.6c-0.1,2,0.1,3.9,0.7,5.8c0.5,1.1,1.3,2.1,2.3,2.7c1.2,0.7,2.6,1,4,1c1.5,0,3-0.4,4.2-1.1
		c1.1-0.7,2-1.7,2.5-2.9c0.6-2.2,0.8-4.4,0.7-6.6v-30.4h9.3v29.1c0,4.9-0.3,8.3-0.8,10.2c-0.6,2.1-1.7,3.9-3.2,5.5
		c-1.5,1.7-3.3,3-5.4,3.9c-2.3,0.9-4.7,1.3-7.1,1.3c-3.3,0.1-6.5-0.8-9.3-2.4c-2.4-1.4-4.4-3.6-5.6-6.1c-1.1-2.4-1.7-6.6-1.7-12.4
		L650.9,317.8z"/>
	<path class="st0" d="M700.8,317.8h9.8c5.4,0,9.2,0.5,11.5,1.4c2.3,1,4.2,2.7,5.5,4.8c1.4,2.4,2.2,5.1,2.1,7.9
		c0.1,2.9-0.7,5.7-2.3,8c-1.8,2.3-4.2,4-7,4.9l11.6,21.8H722L711,346h-0.8v20.7h-9.3L700.8,317.8z M710.1,336.9h2.9
		c3,0,5-0.4,6.1-1.2c1.2-0.9,1.8-2.4,1.7-3.9c0-1-0.3-2-0.8-2.8c-0.5-0.8-1.3-1.4-2.2-1.7c-1.7-0.4-3.4-0.6-5.1-0.5h-2.5
		L710.1,336.9z"/>
	<path class="st0" d="M745.1,317.8h26.6v9.1h-17.4v8.8h17.4v9h-17.4v12.9h17.4v9.1h-26.6V317.8z"/>
	<path class="st0" d="M785.5,316.6h8.4v4.6c0.2,5.1-1.5,10.1-4.7,14l-3.3-2.5c0.7-1,1.3-2,1.8-3.1c0.5-1.1,0.8-2.3,1.1-3.5h-3.3
		L785.5,316.6z"/>
	<path class="st0" d="M836,324.5l-6.9,6.1c-2.4-3.4-4.9-5-7.4-5c-1.1,0-2.2,0.3-3,1c-0.7,0.5-1.1,1.3-1.2,2.2c0,0.8,0.3,1.7,0.8,2.3
		c2.1,2.3,4.4,4.4,6.8,6.3c3.5,3,5.7,4.8,6.5,5.6c1.6,1.6,3,3.4,4,5.5c0.8,1.8,1.2,3.7,1.2,5.7c0.1,3.8-1.4,7.4-4.2,9.9
		c-3,2.7-6.9,4.1-10.8,3.9c-3.2,0.1-6.4-0.8-9.1-2.6c-2.9-2-5.2-4.8-6.6-8l7.8-4.7c2.3,4.3,5.1,6.5,8.1,6.5c1.5,0,2.9-0.5,4-1.4
		c1-0.8,1.6-2,1.6-3.2c0-1.2-0.5-2.4-1.2-3.3c-1.6-1.9-3.4-3.6-5.4-5.1c-5.3-4.3-8.8-7.7-10.3-10c-1.5-2.1-2.3-4.5-2.3-7.1
		c0-3.3,1.4-6.5,3.9-8.7c2.6-2.4,6-3.7,9.6-3.6c2.4,0,4.8,0.6,7,1.7C831.6,320,834,322,836,324.5z"/>
	<path class="st0" d="M870.8,317.8h27v9.2h-8.9v39.7h-9.4V327h-8.7L870.8,317.8z"/>
	<path class="st0" d="M909.7,317.8h26.7v9.1h-17.4v8.8h17.4v9h-17.4v12.9h17.4v9.1h-26.7V317.8z"/>
	<path class="st0" d="M995.3,326.4l-6.5,6.2c-4.4-4.7-9.4-7-14.9-7c-9-0.1-16.5,7.1-16.6,16.1c0,0.2,0,0.3,0,0.5
		c-0.1,3,0.7,6,2.1,8.7c1.4,2.5,3.5,4.6,6,6c2.6,1.5,5.6,2.2,8.6,2.2c2.5,0,5.1-0.5,7.4-1.5c2.8-1.4,5.3-3.3,7.4-5.5l6.3,6.6
		c-2.9,3-6.4,5.5-10.2,7.3c-3.5,1.4-7.2,2.1-11,2c-7.6,0-13.8-2.4-18.6-7.2s-7.3-11-7.3-18.5c-0.1-4.6,1.1-9,3.3-13
		c2.3-3.8,5.5-7,9.5-9.1c4-2.3,8.6-3.5,13.3-3.5C982.2,316.6,990,320.2,995.3,326.4L995.3,326.4z"/>
	<path class="st0" d="M1008.9,317.8h9.4v18.4h16.3v-18.4h9.4v48.9h-9.4v-21.5h-16.3v21.5h-9.4V317.8z"/>
	<path class="st0" d="M1060.6,317.8h8.9l20.9,32.1v-32.1h9.3v48.9h-9l-20.9-32v32h-9.3L1060.6,317.8z"/>
	<path class="st0" d="M1139.4,316.6c6.7-0.1,13.2,2.6,17.8,7.5c4.9,4.8,7.6,11.4,7.5,18.3c0.1,6.8-2.5,13.3-7.4,18.1
		c-10,9.9-26.1,9.9-36-0.1c0,0-0.1-0.1-0.1-0.1c-10-10.1-9.9-26.3,0.2-36.3C1126.2,319.3,1132.7,316.6,1139.4,316.6L1139.4,316.6z
		 M1139.3,325.7c-4.3-0.1-8.4,1.6-11.4,4.7c-3.1,3.2-4.8,7.5-4.6,12c0,5.4,1.9,9.7,5.8,12.8c2.9,2.4,6.6,3.7,10.4,3.7
		c4.3,0.1,8.4-1.7,11.3-4.8c6.2-6.6,6.2-17,0-23.6C1147.8,327.4,1143.6,325.6,1139.3,325.7L1139.3,325.7z"/>
	<path class="st0" d="M1178.9,317.8h9.3v40h13.6v8.9h-22.8L1178.9,317.8z"/>
	<path class="st0" d="M1237.3,316.6c6.7-0.1,13.2,2.6,17.8,7.5c4.9,4.8,7.6,11.4,7.5,18.3c0.1,6.8-2.5,13.3-7.4,18.1
		c-10,9.9-26.1,9.9-36-0.1c0,0-0.1-0.1-0.1-0.1c-10-10.1-9.9-26.3,0.2-36.3C1224.1,319.3,1230.6,316.6,1237.3,316.6L1237.3,316.6z
		 M1237.2,325.7c-4.3-0.1-8.4,1.6-11.4,4.7c-3.1,3.2-4.8,7.5-4.6,12c0,5.4,1.9,9.7,5.8,12.8c2.9,2.4,6.6,3.7,10.4,3.7
		c4.3,0.1,8.4-1.7,11.3-4.8c6.2-6.6,6.2-17,0-23.6C1245.7,327.4,1241.5,325.6,1237.2,325.7L1237.2,325.7z"/>
	<path class="st0" d="M1321.9,325.8l-6.5,6.5c-4.1-4.4-9-6.6-14.5-6.6c-4.5-0.1-8.9,1.6-12.1,4.8c-3.2,3-4.9,7.2-4.9,11.6
		c-0.1,4.5,1.7,8.9,5,12c3.3,3.3,7.8,5,12.5,4.9c2.8,0.1,5.7-0.6,8.1-2c2.4-1.5,4.2-3.7,5.3-6.3h-14.1v-8.7h24.6l0.1,2.1
		c0,4.3-1.2,8.5-3.3,12.1c-2,3.6-5,6.7-8.6,8.8c-3.8,2.1-8.1,3.1-12.4,3c-4.7,0.1-9.4-1.1-13.6-3.3c-4-2.2-7.2-5.5-9.4-9.4
		c-2.3-4-3.5-8.6-3.5-13.2c-0.1-6.2,2.2-12.3,6.4-16.9c5.1-5.7,11.7-8.5,19.8-8.5c4.1,0,8.1,0.8,11.9,2.4
		C1316.2,320.6,1319.3,322.9,1321.9,325.8z"/>
	<path class="st0" d="M1335.9,317.8h10l9.1,17.6l9.1-17.6h9.9l-14.3,27.7v21.2h-9.4v-21.2L1335.9,317.8z"/>
</g>
<g>
	<g>
		<path class="st0" d="M116.8,287.1C26.5,287.1,0,261.6,0,190.7v-88.2C0,31.7,26.5,6.2,116.8,6.2h212.4v54H119.9
			c-41.8,0-52.1,11.1-52.1,45.7v82.4c0,35,10.3,45.3,52.5,45.3h208.8v53.5L116.8,287.1z"/>
		<path class="st0" d="M373.5,287.1V6.2h68.3v280.9H373.5z"/>
	</g>
	<g>
		<path class="st0" d="M486.7,287.1V234h232.6c24.2,0,34.6-4.9,34.6-23.9v-15.2c0-17.7-10.3-24.3-34.1-24.3H573.8
			c-68.7,0-86.7-23.1-86.7-71.3v-14c0-57.7,25.1-79.1,86.7-79.1H669v53.1h-88.9c-20.7,0-30.5,5.8-30.5,28v9.1
			c0,17.7,8.1,24.3,30.1,24.3h143.2c68.3,0,93.4,20.6,93.4,71.3v22.3c0,52.3-25.1,72.9-93.4,72.9L486.7,287.1z"/>
	</g>
	<g>
		<path class="st0" d="M1156.6,222.4H944.7l-43.5,64.7h-78.6l177.8-259.5C1011.1,11.5,1024.1,0,1052,0c27.4,0,40.4,11.5,51.2,27.6
			l176.9,259.5h-79L1156.6,222.4z M976.6,174.2h148.2l-74.1-110.8L976.6,174.2z"/>
		<path class="st0" d="M1310.6,287.1V6.2h68.3v280.9H1310.6z"/>
	</g>
</g>
</svg>
