<?xml version="1.0" encoding="utf-8"?>
<!-- Generator: Adobe Illustrator 24.0.0, SVG Export Plug-In . SVG Version: 6.00 Build 0)  -->
<svg version="1.1" id="Layer_1" xmlns="http://www.w3.org/2000/svg" xmlns:xlink="http://www.w3.org/1999/xlink" x="0px" y="0px"
	 viewBox="0 0 85 70.7" style="enable-background:new 0 0 85 70.7;" xml:space="preserve">
<style type="text/css">
	.st0{clip-path:url(#SVGID_2_);}
	.st1{fill:#28A4C3;stroke:#28A4C3;stroke-miterlimit:10;}
</style>
<title>verify</title>
<g>
	<defs>
		<rect id="SVGID_1_" y="-8.1" width="85" height="87.1"/>
	</defs>
	<clipPath id="SVGID_2_">
		<use xlink:href="#SVGID_1_"  style="overflow:visible;"/>
	</clipPath>
	<g class="st0">
		<path class="st1" d="M34.8,65.6c-0.8,0-1.5-0.3-2.1-0.8l-0.1-0.1l-0.4-0.5L32,64.2L6.4,29.4c-0.2-0.3-0.3-0.6-0.3-0.9
			c0-0.4,0.2-0.7,0.4-1C7,27,7.9,26.9,8.4,27.4l26,19.5L76,5.5c0.7-0.6,1.7-0.6,2.4,0C78.8,6,79,6.6,78.9,7.2c0,0.2-0.1,0.5-0.2,0.7
			L37.5,64.2C36.8,65,35.8,65.6,34.8,65.6z M34,63.1c0.5,0.4,1.2,0.3,1.6-0.1c0-0.1,0.1-0.1,0.1-0.2l38.5-52.5L35.2,49.2
			c-0.4,0.4-0.9,0.4-1.4,0.1l-22.6-17l22.5,30.6L34,63.1z M7,29L7,29z M77.9,7.2L77.9,7.2z"/>
	</g>
</g>
</svg>
